<?xml version="1.0" encoding="utf-8" standalone="no"?>
<!DOCTYPE svg PUBLIC "-//W3C//DTD SVG 1.1//EN"
  "http://www.w3.org/Graphics/SVG/1.1/DTD/svg11.dtd">
<svg height="576pt" version="1.1" viewBox="0 0 1152 576" width="1152pt" xmlns="http://www.w3.org/2000/svg" xmlns:xlink="http://www.w3.org/1999/xlink">
 <metadata>
  <rdf:RDF xmlns:cc="http://creativecommons.org/ns#" xmlns:dc="http://purl.org/dc/elements/1.1/" xmlns:rdf="http://www.w3.org/1999/02/22-rdf-syntax-ns#">
   <cc:Work>
    <dc:type rdf:resource="http://purl.org/dc/dcmitype/StillImage"/>
    <dc:date>2021-05-04T01:40:48.415156</dc:date>
    <dc:format>image/svg+xml</dc:format>
    <dc:creator>
     <cc:Agent>
      <dc:title>Matplotlib v3.4.1, https://matplotlib.org/</dc:title>
     </cc:Agent>
    </dc:creator>
   </cc:Work>
  </rdf:RDF>
 </metadata>
 <defs>
  <style type="text/css">*{stroke-linecap:butt;stroke-linejoin:round;}</style>
 </defs>
 <g id="figure_1">
  <g id="patch_1">
   <path d="M 0 576 
L 1152 576 
L 1152 0 
L 0 0 
z
" style="fill:none;"/>
  </g>
  <g id="axes_1">
   <g id="patch_2">
    <path d="M 144 504 
L 549.818182 504 
L 549.818182 69.12 
L 144 69.12 
z
" style="fill:#ffffff;"/>
   </g>
   <g id="matplotlib.axis_1">
    <g id="xtick_1">
     <g id="line2d_1">
      <defs>
       <path d="M 0 0 
L 0 3.5 
" id="md70c3492bb" style="stroke:#000000;stroke-width:0.8;"/>
      </defs>
      <g>
       <use style="stroke:#000000;stroke-width:0.8;" x="162.446281" xlink:href="#md70c3492bb" y="504"/>
      </g>
     </g>
     <g id="text_1">
      <!-- 0 -->
      <g transform="translate(159.265031 518.598438)scale(0.1 -0.1)">
       <defs>
        <path d="M 2034 4250 
Q 1547 4250 1301 3770 
Q 1056 3291 1056 2328 
Q 1056 1369 1301 889 
Q 1547 409 2034 409 
Q 2525 409 2770 889 
Q 3016 1369 3016 2328 
Q 3016 3291 2770 3770 
Q 2525 4250 2034 4250 
z
M 2034 4750 
Q 2819 4750 3233 4129 
Q 3647 3509 3647 2328 
Q 3647 1150 3233 529 
Q 2819 -91 2034 -91 
Q 1250 -91 836 529 
Q 422 1150 422 2328 
Q 422 3509 836 4129 
Q 1250 4750 2034 4750 
z
" id="DejaVuSans-30" transform="scale(0.015625)"/>
       </defs>
       <use xlink:href="#DejaVuSans-30"/>
      </g>
     </g>
    </g>
    <g id="xtick_2">
     <g id="line2d_2">
      <g>
       <use style="stroke:#000000;stroke-width:0.8;" x="239.305785" xlink:href="#md70c3492bb" y="504"/>
      </g>
     </g>
     <g id="text_2">
      <!-- 10 -->
      <g transform="translate(232.943285 518.598438)scale(0.1 -0.1)">
       <defs>
        <path d="M 794 531 
L 1825 531 
L 1825 4091 
L 703 3866 
L 703 4441 
L 1819 4666 
L 2450 4666 
L 2450 531 
L 3481 531 
L 3481 0 
L 794 0 
L 794 531 
z
" id="DejaVuSans-31" transform="scale(0.015625)"/>
       </defs>
       <use xlink:href="#DejaVuSans-31"/>
       <use x="63.623047" xlink:href="#DejaVuSans-30"/>
      </g>
     </g>
    </g>
    <g id="xtick_3">
     <g id="line2d_3">
      <g>
       <use style="stroke:#000000;stroke-width:0.8;" x="316.165289" xlink:href="#md70c3492bb" y="504"/>
      </g>
     </g>
     <g id="text_3">
      <!-- 20 -->
      <g transform="translate(309.802789 518.598438)scale(0.1 -0.1)">
       <defs>
        <path d="M 1228 531 
L 3431 531 
L 3431 0 
L 469 0 
L 469 531 
Q 828 903 1448 1529 
Q 2069 2156 2228 2338 
Q 2531 2678 2651 2914 
Q 2772 3150 2772 3378 
Q 2772 3750 2511 3984 
Q 2250 4219 1831 4219 
Q 1534 4219 1204 4116 
Q 875 4013 500 3803 
L 500 4441 
Q 881 4594 1212 4672 
Q 1544 4750 1819 4750 
Q 2544 4750 2975 4387 
Q 3406 4025 3406 3419 
Q 3406 3131 3298 2873 
Q 3191 2616 2906 2266 
Q 2828 2175 2409 1742 
Q 1991 1309 1228 531 
z
" id="DejaVuSans-32" transform="scale(0.015625)"/>
       </defs>
       <use xlink:href="#DejaVuSans-32"/>
       <use x="63.623047" xlink:href="#DejaVuSans-30"/>
      </g>
     </g>
    </g>
    <g id="xtick_4">
     <g id="line2d_4">
      <g>
       <use style="stroke:#000000;stroke-width:0.8;" x="393.024793" xlink:href="#md70c3492bb" y="504"/>
      </g>
     </g>
     <g id="text_4">
      <!-- 30 -->
      <g transform="translate(386.662293 518.598438)scale(0.1 -0.1)">
       <defs>
        <path d="M 2597 2516 
Q 3050 2419 3304 2112 
Q 3559 1806 3559 1356 
Q 3559 666 3084 287 
Q 2609 -91 1734 -91 
Q 1441 -91 1130 -33 
Q 819 25 488 141 
L 488 750 
Q 750 597 1062 519 
Q 1375 441 1716 441 
Q 2309 441 2620 675 
Q 2931 909 2931 1356 
Q 2931 1769 2642 2001 
Q 2353 2234 1838 2234 
L 1294 2234 
L 1294 2753 
L 1863 2753 
Q 2328 2753 2575 2939 
Q 2822 3125 2822 3475 
Q 2822 3834 2567 4026 
Q 2313 4219 1838 4219 
Q 1578 4219 1281 4162 
Q 984 4106 628 3988 
L 628 4550 
Q 988 4650 1302 4700 
Q 1616 4750 1894 4750 
Q 2613 4750 3031 4423 
Q 3450 4097 3450 3541 
Q 3450 3153 3228 2886 
Q 3006 2619 2597 2516 
z
" id="DejaVuSans-33" transform="scale(0.015625)"/>
       </defs>
       <use xlink:href="#DejaVuSans-33"/>
       <use x="63.623047" xlink:href="#DejaVuSans-30"/>
      </g>
     </g>
    </g>
    <g id="xtick_5">
     <g id="line2d_5">
      <g>
       <use style="stroke:#000000;stroke-width:0.8;" x="469.884298" xlink:href="#md70c3492bb" y="504"/>
      </g>
     </g>
     <g id="text_5">
      <!-- 40 -->
      <g transform="translate(463.521798 518.598438)scale(0.1 -0.1)">
       <defs>
        <path d="M 2419 4116 
L 825 1625 
L 2419 1625 
L 2419 4116 
z
M 2253 4666 
L 3047 4666 
L 3047 1625 
L 3713 1625 
L 3713 1100 
L 3047 1100 
L 3047 0 
L 2419 0 
L 2419 1100 
L 313 1100 
L 313 1709 
L 2253 4666 
z
" id="DejaVuSans-34" transform="scale(0.015625)"/>
       </defs>
       <use xlink:href="#DejaVuSans-34"/>
       <use x="63.623047" xlink:href="#DejaVuSans-30"/>
      </g>
     </g>
    </g>
    <g id="xtick_6">
     <g id="line2d_6">
      <g>
       <use style="stroke:#000000;stroke-width:0.8;" x="546.743802" xlink:href="#md70c3492bb" y="504"/>
      </g>
     </g>
     <g id="text_6">
      <!-- 50 -->
      <g transform="translate(540.381302 518.598438)scale(0.1 -0.1)">
       <defs>
        <path d="M 691 4666 
L 3169 4666 
L 3169 4134 
L 1269 4134 
L 1269 2991 
Q 1406 3038 1543 3061 
Q 1681 3084 1819 3084 
Q 2600 3084 3056 2656 
Q 3513 2228 3513 1497 
Q 3513 744 3044 326 
Q 2575 -91 1722 -91 
Q 1428 -91 1123 -41 
Q 819 9 494 109 
L 494 744 
Q 775 591 1075 516 
Q 1375 441 1709 441 
Q 2250 441 2565 725 
Q 2881 1009 2881 1497 
Q 2881 1984 2565 2268 
Q 2250 2553 1709 2553 
Q 1456 2553 1204 2497 
Q 953 2441 691 2322 
L 691 4666 
z
" id="DejaVuSans-35" transform="scale(0.015625)"/>
       </defs>
       <use xlink:href="#DejaVuSans-35"/>
       <use x="63.623047" xlink:href="#DejaVuSans-30"/>
      </g>
     </g>
    </g>
    <g id="text_7">
     <!-- $\# \, of \, epochs$ -->
     <g transform="translate(278.509091 542.918125)scale(0.24 -0.24)">
      <defs>
       <path d="M 3272 2816 
L 2363 2816 
L 2100 1772 
L 3016 1772 
L 3272 2816 
z
M 2803 4594 
L 2478 3297 
L 3391 3297 
L 3719 4594 
L 4219 4594 
L 3897 3297 
L 4872 3297 
L 4872 2816 
L 3775 2816 
L 3519 1772 
L 4513 1772 
L 4513 1294 
L 3397 1294 
L 3072 0 
L 2572 0 
L 2894 1294 
L 1978 1294 
L 1656 0 
L 1153 0 
L 1478 1294 
L 494 1294 
L 494 1772 
L 1594 1772 
L 1856 2816 
L 850 2816 
L 850 3297 
L 1978 3297 
L 2297 4594 
L 2803 4594 
z
" id="DejaVuSans-23" transform="scale(0.015625)"/>
       <path d="M 1625 -91 
Q 1009 -91 651 289 
Q 294 669 294 1325 
Q 294 1706 417 2101 
Q 541 2497 738 2766 
Q 1047 3184 1428 3384 
Q 1809 3584 2291 3584 
Q 2888 3584 3255 3212 
Q 3622 2841 3622 2241 
Q 3622 1825 3500 1412 
Q 3378 1000 3181 728 
Q 2875 309 2494 109 
Q 2113 -91 1625 -91 
z
M 891 1344 
Q 891 869 1089 633 
Q 1288 397 1691 397 
Q 2269 397 2648 901 
Q 3028 1406 3028 2181 
Q 3028 2634 2825 2865 
Q 2622 3097 2228 3097 
Q 1903 3097 1650 2945 
Q 1397 2794 1197 2484 
Q 1050 2253 970 1956 
Q 891 1659 891 1344 
z
" id="DejaVuSans-Oblique-6f" transform="scale(0.015625)"/>
       <path d="M 3059 4863 
L 2969 4384 
L 2419 4384 
Q 2106 4384 1964 4261 
Q 1822 4138 1753 3809 
L 1691 3500 
L 2638 3500 
L 2553 3053 
L 1606 3053 
L 1013 0 
L 434 0 
L 1031 3053 
L 481 3053 
L 563 3500 
L 1113 3500 
L 1159 3744 
Q 1278 4363 1576 4613 
Q 1875 4863 2516 4863 
L 3059 4863 
z
" id="DejaVuSans-Oblique-66" transform="scale(0.015625)"/>
       <path d="M 3078 2063 
Q 3088 2113 3092 2166 
Q 3097 2219 3097 2272 
Q 3097 2653 2873 2875 
Q 2650 3097 2266 3097 
Q 1838 3097 1509 2826 
Q 1181 2556 1013 2059 
L 3078 2063 
z
M 3578 1613 
L 903 1613 
Q 884 1494 878 1425 
Q 872 1356 872 1306 
Q 872 872 1139 634 
Q 1406 397 1894 397 
Q 2269 397 2603 481 
Q 2938 566 3225 728 
L 3116 159 
Q 2806 34 2476 -28 
Q 2147 -91 1806 -91 
Q 1078 -91 686 257 
Q 294 606 294 1247 
Q 294 1794 489 2264 
Q 684 2734 1063 3103 
Q 1306 3334 1642 3459 
Q 1978 3584 2356 3584 
Q 2950 3584 3301 3228 
Q 3653 2872 3653 2272 
Q 3653 2128 3634 1964 
Q 3616 1800 3578 1613 
z
" id="DejaVuSans-Oblique-65" transform="scale(0.015625)"/>
       <path d="M 3175 2156 
Q 3175 2616 2975 2859 
Q 2775 3103 2400 3103 
Q 2144 3103 1911 2972 
Q 1678 2841 1497 2591 
Q 1319 2344 1212 1994 
Q 1106 1644 1106 1300 
Q 1106 863 1306 627 
Q 1506 391 1875 391 
Q 2147 391 2380 519 
Q 2613 647 2778 891 
Q 2956 1147 3065 1494 
Q 3175 1841 3175 2156 
z
M 1394 2969 
Q 1625 3272 1939 3428 
Q 2253 3584 2638 3584 
Q 3175 3584 3472 3232 
Q 3769 2881 3769 2247 
Q 3769 1728 3584 1258 
Q 3400 788 3053 416 
Q 2822 169 2531 39 
Q 2241 -91 1919 -91 
Q 1547 -91 1294 64 
Q 1041 219 916 525 
L 556 -1331 
L -19 -1331 
L 922 3500 
L 1497 3500 
L 1394 2969 
z
" id="DejaVuSans-Oblique-70" transform="scale(0.015625)"/>
       <path d="M 3431 3366 
L 3316 2797 
Q 3109 2947 2876 3022 
Q 2644 3097 2394 3097 
Q 2119 3097 1870 3000 
Q 1622 2903 1453 2725 
Q 1184 2453 1037 2087 
Q 891 1722 891 1331 
Q 891 859 1127 628 
Q 1363 397 1844 397 
Q 2081 397 2348 469 
Q 2616 541 2906 684 
L 2797 116 
Q 2547 13 2283 -39 
Q 2019 -91 1741 -91 
Q 1044 -91 669 257 
Q 294 606 294 1253 
Q 294 1797 489 2255 
Q 684 2713 1069 3078 
Q 1331 3328 1684 3456 
Q 2038 3584 2456 3584 
Q 2700 3584 2940 3529 
Q 3181 3475 3431 3366 
z
" id="DejaVuSans-Oblique-63" transform="scale(0.015625)"/>
       <path d="M 3566 2113 
L 3156 0 
L 2578 0 
L 2988 2091 
Q 3016 2238 3031 2350 
Q 3047 2463 3047 2528 
Q 3047 2791 2881 2937 
Q 2716 3084 2419 3084 
Q 1956 3084 1617 2771 
Q 1278 2459 1178 1941 
L 800 0 
L 225 0 
L 1172 4863 
L 1747 4863 
L 1375 2950 
Q 1594 3244 1934 3414 
Q 2275 3584 2650 3584 
Q 3113 3584 3367 3334 
Q 3622 3084 3622 2631 
Q 3622 2519 3608 2391 
Q 3594 2263 3566 2113 
z
" id="DejaVuSans-Oblique-68" transform="scale(0.015625)"/>
       <path d="M 3200 3397 
L 3091 2853 
Q 2863 2978 2609 3040 
Q 2356 3103 2088 3103 
Q 1634 3103 1373 2948 
Q 1113 2794 1113 2528 
Q 1113 2219 1719 2053 
Q 1766 2041 1788 2034 
L 1972 1978 
Q 2547 1819 2739 1644 
Q 2931 1469 2931 1166 
Q 2931 609 2489 259 
Q 2047 -91 1331 -91 
Q 1053 -91 747 -37 
Q 441 16 72 128 
L 184 722 
Q 500 559 806 475 
Q 1113 391 1394 391 
Q 1816 391 2080 572 
Q 2344 753 2344 1031 
Q 2344 1331 1650 1516 
L 1591 1531 
L 1394 1581 
Q 956 1697 753 1886 
Q 550 2075 550 2369 
Q 550 2928 970 3256 
Q 1391 3584 2113 3584 
Q 2397 3584 2667 3537 
Q 2938 3491 3200 3397 
z
" id="DejaVuSans-Oblique-73" transform="scale(0.015625)"/>
      </defs>
      <use transform="translate(0 0.015625)" xlink:href="#DejaVuSans-23"/>
      <use transform="translate(100.024739 0.015625)" xlink:href="#DejaVuSans-Oblique-6f"/>
      <use transform="translate(161.206379 0.015625)" xlink:href="#DejaVuSans-Oblique-66"/>
      <use transform="translate(212.647134 0.015625)" xlink:href="#DejaVuSans-Oblique-65"/>
      <use transform="translate(274.170571 0.015625)" xlink:href="#DejaVuSans-Oblique-70"/>
      <use transform="translate(337.647134 0.015625)" xlink:href="#DejaVuSans-Oblique-6f"/>
      <use transform="translate(398.828774 0.015625)" xlink:href="#DejaVuSans-Oblique-63"/>
      <use transform="translate(453.809243 0.015625)" xlink:href="#DejaVuSans-Oblique-68"/>
      <use transform="translate(517.188149 0.015625)" xlink:href="#DejaVuSans-Oblique-73"/>
     </g>
    </g>
   </g>
   <g id="matplotlib.axis_2">
    <g id="ytick_1">
     <g id="line2d_7">
      <defs>
       <path d="M 0 0 
L -3.5 0 
" id="m16b81876f1" style="stroke:#000000;stroke-width:0.8;"/>
      </defs>
      <g>
       <use style="stroke:#000000;stroke-width:0.8;" x="144" xlink:href="#m16b81876f1" y="471.22503"/>
      </g>
     </g>
     <g id="text_8">
      <!-- 0.2 -->
      <g transform="translate(121.096875 475.024249)scale(0.1 -0.1)">
       <defs>
        <path d="M 684 794 
L 1344 794 
L 1344 0 
L 684 0 
L 684 794 
z
" id="DejaVuSans-2e" transform="scale(0.015625)"/>
       </defs>
       <use xlink:href="#DejaVuSans-30"/>
       <use x="63.623047" xlink:href="#DejaVuSans-2e"/>
       <use x="95.410156" xlink:href="#DejaVuSans-32"/>
      </g>
     </g>
    </g>
    <g id="ytick_2">
     <g id="line2d_8">
      <g>
       <use style="stroke:#000000;stroke-width:0.8;" x="144" xlink:href="#m16b81876f1" y="409.038905"/>
      </g>
     </g>
     <g id="text_9">
      <!-- 0.4 -->
      <g transform="translate(121.096875 412.838124)scale(0.1 -0.1)">
       <use xlink:href="#DejaVuSans-30"/>
       <use x="63.623047" xlink:href="#DejaVuSans-2e"/>
       <use x="95.410156" xlink:href="#DejaVuSans-34"/>
      </g>
     </g>
    </g>
    <g id="ytick_3">
     <g id="line2d_9">
      <g>
       <use style="stroke:#000000;stroke-width:0.8;" x="144" xlink:href="#m16b81876f1" y="346.852779"/>
      </g>
     </g>
     <g id="text_10">
      <!-- 0.6 -->
      <g transform="translate(121.096875 350.651998)scale(0.1 -0.1)">
       <defs>
        <path d="M 2113 2584 
Q 1688 2584 1439 2293 
Q 1191 2003 1191 1497 
Q 1191 994 1439 701 
Q 1688 409 2113 409 
Q 2538 409 2786 701 
Q 3034 994 3034 1497 
Q 3034 2003 2786 2293 
Q 2538 2584 2113 2584 
z
M 3366 4563 
L 3366 3988 
Q 3128 4100 2886 4159 
Q 2644 4219 2406 4219 
Q 1781 4219 1451 3797 
Q 1122 3375 1075 2522 
Q 1259 2794 1537 2939 
Q 1816 3084 2150 3084 
Q 2853 3084 3261 2657 
Q 3669 2231 3669 1497 
Q 3669 778 3244 343 
Q 2819 -91 2113 -91 
Q 1303 -91 875 529 
Q 447 1150 447 2328 
Q 447 3434 972 4092 
Q 1497 4750 2381 4750 
Q 2619 4750 2861 4703 
Q 3103 4656 3366 4563 
z
" id="DejaVuSans-36" transform="scale(0.015625)"/>
       </defs>
       <use xlink:href="#DejaVuSans-30"/>
       <use x="63.623047" xlink:href="#DejaVuSans-2e"/>
       <use x="95.410156" xlink:href="#DejaVuSans-36"/>
      </g>
     </g>
    </g>
    <g id="ytick_4">
     <g id="line2d_10">
      <g>
       <use style="stroke:#000000;stroke-width:0.8;" x="144" xlink:href="#m16b81876f1" y="284.666654"/>
      </g>
     </g>
     <g id="text_11">
      <!-- 0.8 -->
      <g transform="translate(121.096875 288.465873)scale(0.1 -0.1)">
       <defs>
        <path d="M 2034 2216 
Q 1584 2216 1326 1975 
Q 1069 1734 1069 1313 
Q 1069 891 1326 650 
Q 1584 409 2034 409 
Q 2484 409 2743 651 
Q 3003 894 3003 1313 
Q 3003 1734 2745 1975 
Q 2488 2216 2034 2216 
z
M 1403 2484 
Q 997 2584 770 2862 
Q 544 3141 544 3541 
Q 544 4100 942 4425 
Q 1341 4750 2034 4750 
Q 2731 4750 3128 4425 
Q 3525 4100 3525 3541 
Q 3525 3141 3298 2862 
Q 3072 2584 2669 2484 
Q 3125 2378 3379 2068 
Q 3634 1759 3634 1313 
Q 3634 634 3220 271 
Q 2806 -91 2034 -91 
Q 1263 -91 848 271 
Q 434 634 434 1313 
Q 434 1759 690 2068 
Q 947 2378 1403 2484 
z
M 1172 3481 
Q 1172 3119 1398 2916 
Q 1625 2713 2034 2713 
Q 2441 2713 2670 2916 
Q 2900 3119 2900 3481 
Q 2900 3844 2670 4047 
Q 2441 4250 2034 4250 
Q 1625 4250 1398 4047 
Q 1172 3844 1172 3481 
z
" id="DejaVuSans-38" transform="scale(0.015625)"/>
       </defs>
       <use xlink:href="#DejaVuSans-30"/>
       <use x="63.623047" xlink:href="#DejaVuSans-2e"/>
       <use x="95.410156" xlink:href="#DejaVuSans-38"/>
      </g>
     </g>
    </g>
    <g id="ytick_5">
     <g id="line2d_11">
      <g>
       <use style="stroke:#000000;stroke-width:0.8;" x="144" xlink:href="#m16b81876f1" y="222.480528"/>
      </g>
     </g>
     <g id="text_12">
      <!-- 1.0 -->
      <g transform="translate(121.096875 226.279747)scale(0.1 -0.1)">
       <use xlink:href="#DejaVuSans-31"/>
       <use x="63.623047" xlink:href="#DejaVuSans-2e"/>
       <use x="95.410156" xlink:href="#DejaVuSans-30"/>
      </g>
     </g>
    </g>
    <g id="ytick_6">
     <g id="line2d_12">
      <g>
       <use style="stroke:#000000;stroke-width:0.8;" x="144" xlink:href="#m16b81876f1" y="160.294403"/>
      </g>
     </g>
     <g id="text_13">
      <!-- 1.2 -->
      <g transform="translate(121.096875 164.093622)scale(0.1 -0.1)">
       <use xlink:href="#DejaVuSans-31"/>
       <use x="63.623047" xlink:href="#DejaVuSans-2e"/>
       <use x="95.410156" xlink:href="#DejaVuSans-32"/>
      </g>
     </g>
    </g>
    <g id="ytick_7">
     <g id="line2d_13">
      <g>
       <use style="stroke:#000000;stroke-width:0.8;" x="144" xlink:href="#m16b81876f1" y="98.108277"/>
      </g>
     </g>
     <g id="text_14">
      <!-- 1.4 -->
      <g transform="translate(121.096875 101.907496)scale(0.1 -0.1)">
       <use xlink:href="#DejaVuSans-31"/>
       <use x="63.623047" xlink:href="#DejaVuSans-2e"/>
       <use x="95.410156" xlink:href="#DejaVuSans-34"/>
      </g>
     </g>
    </g>
    <g id="text_15">
     <!-- $cost \, CCE$ -->
     <g transform="translate(112.105625 337.8)rotate(-90)scale(0.24 -0.24)">
      <defs>
       <path d="M 2706 3500 
L 2619 3053 
L 1472 3053 
L 1100 1153 
Q 1081 1047 1072 975 
Q 1063 903 1063 863 
Q 1063 663 1183 572 
Q 1303 481 1569 481 
L 2150 481 
L 2053 0 
L 1503 0 
Q 991 0 739 200 
Q 488 400 488 806 
Q 488 878 497 964 
Q 506 1050 525 1153 
L 897 3053 
L 409 3053 
L 500 3500 
L 978 3500 
L 1172 4494 
L 1747 4494 
L 1556 3500 
L 2706 3500 
z
" id="DejaVuSans-Oblique-74" transform="scale(0.015625)"/>
       <path d="M 4447 4306 
L 4319 3641 
Q 4019 3944 3683 4091 
Q 3347 4238 2956 4238 
Q 2422 4238 2017 3981 
Q 1613 3725 1319 3200 
Q 1131 2863 1032 2486 
Q 934 2109 934 1728 
Q 934 1091 1264 756 
Q 1594 422 2222 422 
Q 2656 422 3056 561 
Q 3456 700 3834 978 
L 3688 231 
Q 3316 72 2936 -9 
Q 2556 -91 2175 -91 
Q 1278 -91 773 396 
Q 269 884 269 1753 
Q 269 2309 461 2846 
Q 653 3384 1013 3828 
Q 1394 4300 1883 4525 
Q 2372 4750 3022 4750 
Q 3422 4750 3780 4639 
Q 4138 4528 4447 4306 
z
" id="DejaVuSans-Oblique-43" transform="scale(0.015625)"/>
       <path d="M 1081 4666 
L 4031 4666 
L 3928 4134 
L 1606 4134 
L 1338 2753 
L 3566 2753 
L 3463 2222 
L 1234 2222 
L 909 531 
L 3284 531 
L 3181 0 
L 172 0 
L 1081 4666 
z
" id="DejaVuSans-Oblique-45" transform="scale(0.015625)"/>
      </defs>
      <use transform="translate(0 0.78125)" xlink:href="#DejaVuSans-Oblique-63"/>
      <use transform="translate(54.980469 0.78125)" xlink:href="#DejaVuSans-Oblique-6f"/>
      <use transform="translate(116.162109 0.78125)" xlink:href="#DejaVuSans-Oblique-73"/>
      <use transform="translate(168.261719 0.78125)" xlink:href="#DejaVuSans-Oblique-74"/>
      <use transform="translate(223.706379 0.78125)" xlink:href="#DejaVuSans-Oblique-43"/>
      <use transform="translate(293.530598 0.78125)" xlink:href="#DejaVuSans-Oblique-43"/>
      <use transform="translate(363.354817 0.78125)" xlink:href="#DejaVuSans-Oblique-45"/>
     </g>
    </g>
   </g>
   <g id="line2d_14">
    <path clip-path="url(#p263ac49630)" d="M 162.446281 305.994434 
L 170.132231 379.181246 
L 177.818182 394.836458 
L 185.504132 405.732641 
L 193.190083 412.324658 
L 200.876033 417.984386 
L 208.561983 422.619801 
L 216.247934 427.101716 
L 223.933884 429.85579 
L 231.619835 433.134336 
L 239.305785 436.471622 
L 246.991736 438.996638 
L 254.677686 441.6191 
L 262.363636 444.240719 
L 270.049587 445.529405 
L 277.735537 447.845685 
L 285.421488 450.652198 
L 293.107438 452.780795 
L 300.793388 454.562234 
L 308.479339 455.828171 
L 316.165289 458.033934 
L 323.85124 459.320781 
L 331.53719 460.380233 
L 339.22314 461.539833 
L 346.909091 462.392722 
L 354.595041 465.283031 
L 362.280992 465.943827 
L 369.966942 467.190591 
L 377.652893 468.475867 
L 385.338843 469.74715 
L 393.024793 470.114903 
L 400.710744 471.812323 
L 408.396694 471.353546 
L 416.082645 473.739218 
L 423.768595 475.043203 
L 431.454545 475.496768 
L 439.140496 475.521838 
L 446.826446 477.009178 
L 454.512397 477.106814 
L 462.198347 478.684669 
L 469.884298 478.649512 
L 477.570248 480.439119 
L 485.256198 481.266266 
L 492.942149 481.963975 
L 500.628099 481.638606 
L 508.31405 482.812189 
L 516 482.564687 
L 523.68595 483.955748 
L 531.371901 484.232727 
" style="fill:none;stroke:#1f77b4;stroke-linecap:square;stroke-width:1.5;"/>
   </g>
   <g id="line2d_15">
    <path clip-path="url(#p263ac49630)" d="M 162.446281 88.887273 
L 170.132231 389.558174 
L 177.818182 405.03875 
L 185.504132 410.955122 
L 193.190083 418.800186 
L 200.876033 421.12047 
L 208.561983 423.818444 
L 216.247934 426.086817 
L 223.933884 422.363046 
L 231.619835 431.859058 
L 239.305785 431.203559 
L 246.991736 432.587318 
L 254.677686 435.097712 
L 262.363636 433.074409 
L 270.049587 436.164578 
L 277.735537 438.775271 
L 285.421488 437.264135 
L 293.107438 440.413062 
L 300.793388 441.062872 
L 308.479339 437.700502 
L 316.165289 442.715238 
L 323.85124 442.300138 
L 331.53719 439.411571 
L 339.22314 440.694558 
L 346.909091 437.147609 
L 354.595041 437.722676 
L 362.280992 442.076983 
L 369.966942 442.563741 
L 377.652893 439.234007 
L 385.338843 441.881563 
L 393.024793 441.688858 
L 400.710744 445.327517 
L 408.396694 441.375003 
L 416.082645 439.961211 
L 423.768595 441.877718 
L 431.454545 442.967286 
L 439.140496 441.682751 
L 446.826446 437.872228 
L 454.512397 438.925203 
L 462.198347 444.094624 
L 469.884298 439.309019 
L 477.570248 438.752587 
L 485.256198 438.918475 
L 492.942149 441.065596 
L 500.628099 442.849203 
L 508.31405 436.541398 
L 516 440.229484 
L 523.68595 438.734573 
L 531.371901 439.666797 
" style="fill:none;stroke:#ff7f0e;stroke-dasharray:5.55,2.4;stroke-dashoffset:0;stroke-width:1.5;"/>
   </g>
   <g id="patch_3">
    <path d="M 144 504 
L 144 69.12 
" style="fill:none;stroke:#000000;stroke-linecap:square;stroke-linejoin:miter;stroke-width:0.8;"/>
   </g>
   <g id="patch_4">
    <path d="M 549.818182 504 
L 549.818182 69.12 
" style="fill:none;stroke:#000000;stroke-linecap:square;stroke-linejoin:miter;stroke-width:0.8;"/>
   </g>
   <g id="patch_5">
    <path d="M 144 504 
L 549.818182 504 
" style="fill:none;stroke:#000000;stroke-linecap:square;stroke-linejoin:miter;stroke-width:0.8;"/>
   </g>
   <g id="patch_6">
    <path d="M 144 69.12 
L 549.818182 69.12 
" style="fill:none;stroke:#000000;stroke-linecap:square;stroke-linejoin:miter;stroke-width:0.8;"/>
   </g>
   <g id="legend_1">
    <g id="patch_7">
     <path d="M 338.055682 158.775 
L 533.018182 158.775 
Q 537.818182 158.775 537.818182 153.975 
L 537.818182 85.92 
Q 537.818182 81.12 533.018182 81.12 
L 338.055682 81.12 
Q 333.255682 81.12 333.255682 85.92 
L 333.255682 153.975 
Q 333.255682 158.775 338.055682 158.775 
z
" style="fill:#ffffff;opacity:0.8;stroke:#cccccc;stroke-linejoin:miter;"/>
    </g>
    <g id="line2d_16">
     <path d="M 342.855682 100.55625 
L 390.855682 100.55625 
" style="fill:none;stroke:#1f77b4;stroke-linecap:square;stroke-width:1.5;"/>
    </g>
    <g id="line2d_17"/>
    <g id="text_16">
     <!-- train -->
     <g transform="translate(410.055682 108.95625)scale(0.24 -0.24)">
      <defs>
       <path d="M 1172 4494 
L 1172 3500 
L 2356 3500 
L 2356 3053 
L 1172 3053 
L 1172 1153 
Q 1172 725 1289 603 
Q 1406 481 1766 481 
L 2356 481 
L 2356 0 
L 1766 0 
Q 1100 0 847 248 
Q 594 497 594 1153 
L 594 3053 
L 172 3053 
L 172 3500 
L 594 3500 
L 594 4494 
L 1172 4494 
z
" id="DejaVuSans-74" transform="scale(0.015625)"/>
       <path d="M 2631 2963 
Q 2534 3019 2420 3045 
Q 2306 3072 2169 3072 
Q 1681 3072 1420 2755 
Q 1159 2438 1159 1844 
L 1159 0 
L 581 0 
L 581 3500 
L 1159 3500 
L 1159 2956 
Q 1341 3275 1631 3429 
Q 1922 3584 2338 3584 
Q 2397 3584 2469 3576 
Q 2541 3569 2628 3553 
L 2631 2963 
z
" id="DejaVuSans-72" transform="scale(0.015625)"/>
       <path d="M 2194 1759 
Q 1497 1759 1228 1600 
Q 959 1441 959 1056 
Q 959 750 1161 570 
Q 1363 391 1709 391 
Q 2188 391 2477 730 
Q 2766 1069 2766 1631 
L 2766 1759 
L 2194 1759 
z
M 3341 1997 
L 3341 0 
L 2766 0 
L 2766 531 
Q 2569 213 2275 61 
Q 1981 -91 1556 -91 
Q 1019 -91 701 211 
Q 384 513 384 1019 
Q 384 1609 779 1909 
Q 1175 2209 1959 2209 
L 2766 2209 
L 2766 2266 
Q 2766 2663 2505 2880 
Q 2244 3097 1772 3097 
Q 1472 3097 1187 3025 
Q 903 2953 641 2809 
L 641 3341 
Q 956 3463 1253 3523 
Q 1550 3584 1831 3584 
Q 2591 3584 2966 3190 
Q 3341 2797 3341 1997 
z
" id="DejaVuSans-61" transform="scale(0.015625)"/>
       <path d="M 603 3500 
L 1178 3500 
L 1178 0 
L 603 0 
L 603 3500 
z
M 603 4863 
L 1178 4863 
L 1178 4134 
L 603 4134 
L 603 4863 
z
" id="DejaVuSans-69" transform="scale(0.015625)"/>
       <path d="M 3513 2113 
L 3513 0 
L 2938 0 
L 2938 2094 
Q 2938 2591 2744 2837 
Q 2550 3084 2163 3084 
Q 1697 3084 1428 2787 
Q 1159 2491 1159 1978 
L 1159 0 
L 581 0 
L 581 3500 
L 1159 3500 
L 1159 2956 
Q 1366 3272 1645 3428 
Q 1925 3584 2291 3584 
Q 2894 3584 3203 3211 
Q 3513 2838 3513 2113 
z
" id="DejaVuSans-6e" transform="scale(0.015625)"/>
      </defs>
      <use xlink:href="#DejaVuSans-74"/>
      <use x="39.208984" xlink:href="#DejaVuSans-72"/>
      <use x="80.322266" xlink:href="#DejaVuSans-61"/>
      <use x="141.601562" xlink:href="#DejaVuSans-69"/>
      <use x="169.384766" xlink:href="#DejaVuSans-6e"/>
     </g>
    </g>
    <g id="line2d_18">
     <path d="M 342.855682 135.78375 
L 390.855682 135.78375 
" style="fill:none;stroke:#ff7f0e;stroke-dasharray:5.55,2.4;stroke-dashoffset:0;stroke-width:1.5;"/>
    </g>
    <g id="line2d_19"/>
    <g id="text_17">
     <!-- validation -->
     <g transform="translate(410.055682 144.18375)scale(0.24 -0.24)">
      <defs>
       <path d="M 191 3500 
L 800 3500 
L 1894 563 
L 2988 3500 
L 3597 3500 
L 2284 0 
L 1503 0 
L 191 3500 
z
" id="DejaVuSans-76" transform="scale(0.015625)"/>
       <path d="M 603 4863 
L 1178 4863 
L 1178 0 
L 603 0 
L 603 4863 
z
" id="DejaVuSans-6c" transform="scale(0.015625)"/>
       <path d="M 2906 2969 
L 2906 4863 
L 3481 4863 
L 3481 0 
L 2906 0 
L 2906 525 
Q 2725 213 2448 61 
Q 2172 -91 1784 -91 
Q 1150 -91 751 415 
Q 353 922 353 1747 
Q 353 2572 751 3078 
Q 1150 3584 1784 3584 
Q 2172 3584 2448 3432 
Q 2725 3281 2906 2969 
z
M 947 1747 
Q 947 1113 1208 752 
Q 1469 391 1925 391 
Q 2381 391 2643 752 
Q 2906 1113 2906 1747 
Q 2906 2381 2643 2742 
Q 2381 3103 1925 3103 
Q 1469 3103 1208 2742 
Q 947 2381 947 1747 
z
" id="DejaVuSans-64" transform="scale(0.015625)"/>
       <path d="M 1959 3097 
Q 1497 3097 1228 2736 
Q 959 2375 959 1747 
Q 959 1119 1226 758 
Q 1494 397 1959 397 
Q 2419 397 2687 759 
Q 2956 1122 2956 1747 
Q 2956 2369 2687 2733 
Q 2419 3097 1959 3097 
z
M 1959 3584 
Q 2709 3584 3137 3096 
Q 3566 2609 3566 1747 
Q 3566 888 3137 398 
Q 2709 -91 1959 -91 
Q 1206 -91 779 398 
Q 353 888 353 1747 
Q 353 2609 779 3096 
Q 1206 3584 1959 3584 
z
" id="DejaVuSans-6f" transform="scale(0.015625)"/>
      </defs>
      <use xlink:href="#DejaVuSans-76"/>
      <use x="59.179688" xlink:href="#DejaVuSans-61"/>
      <use x="120.458984" xlink:href="#DejaVuSans-6c"/>
      <use x="148.242188" xlink:href="#DejaVuSans-69"/>
      <use x="176.025391" xlink:href="#DejaVuSans-64"/>
      <use x="239.501953" xlink:href="#DejaVuSans-61"/>
      <use x="300.78125" xlink:href="#DejaVuSans-74"/>
      <use x="339.990234" xlink:href="#DejaVuSans-69"/>
      <use x="367.773438" xlink:href="#DejaVuSans-6f"/>
      <use x="428.955078" xlink:href="#DejaVuSans-6e"/>
     </g>
    </g>
   </g>
  </g>
  <g id="axes_2">
   <g id="patch_8">
    <path d="M 630.981818 504 
L 1036.8 504 
L 1036.8 69.12 
L 630.981818 69.12 
z
" style="fill:#ffffff;"/>
   </g>
   <g id="matplotlib.axis_3">
    <g id="xtick_7">
     <g id="line2d_20">
      <g>
       <use style="stroke:#000000;stroke-width:0.8;" x="649.428099" xlink:href="#md70c3492bb" y="504"/>
      </g>
     </g>
     <g id="text_18">
      <!-- 0 -->
      <g transform="translate(646.246849 518.598438)scale(0.1 -0.1)">
       <use xlink:href="#DejaVuSans-30"/>
      </g>
     </g>
    </g>
    <g id="xtick_8">
     <g id="line2d_21">
      <g>
       <use style="stroke:#000000;stroke-width:0.8;" x="726.287603" xlink:href="#md70c3492bb" y="504"/>
      </g>
     </g>
     <g id="text_19">
      <!-- 10 -->
      <g transform="translate(719.925103 518.598438)scale(0.1 -0.1)">
       <use xlink:href="#DejaVuSans-31"/>
       <use x="63.623047" xlink:href="#DejaVuSans-30"/>
      </g>
     </g>
    </g>
    <g id="xtick_9">
     <g id="line2d_22">
      <g>
       <use style="stroke:#000000;stroke-width:0.8;" x="803.147107" xlink:href="#md70c3492bb" y="504"/>
      </g>
     </g>
     <g id="text_20">
      <!-- 20 -->
      <g transform="translate(796.784607 518.598438)scale(0.1 -0.1)">
       <use xlink:href="#DejaVuSans-32"/>
       <use x="63.623047" xlink:href="#DejaVuSans-30"/>
      </g>
     </g>
    </g>
    <g id="xtick_10">
     <g id="line2d_23">
      <g>
       <use style="stroke:#000000;stroke-width:0.8;" x="880.006612" xlink:href="#md70c3492bb" y="504"/>
      </g>
     </g>
     <g id="text_21">
      <!-- 30 -->
      <g transform="translate(873.644112 518.598438)scale(0.1 -0.1)">
       <use xlink:href="#DejaVuSans-33"/>
       <use x="63.623047" xlink:href="#DejaVuSans-30"/>
      </g>
     </g>
    </g>
    <g id="xtick_11">
     <g id="line2d_24">
      <g>
       <use style="stroke:#000000;stroke-width:0.8;" x="956.866116" xlink:href="#md70c3492bb" y="504"/>
      </g>
     </g>
     <g id="text_22">
      <!-- 40 -->
      <g transform="translate(950.503616 518.598438)scale(0.1 -0.1)">
       <use xlink:href="#DejaVuSans-34"/>
       <use x="63.623047" xlink:href="#DejaVuSans-30"/>
      </g>
     </g>
    </g>
    <g id="xtick_12">
     <g id="line2d_25">
      <g>
       <use style="stroke:#000000;stroke-width:0.8;" x="1033.72562" xlink:href="#md70c3492bb" y="504"/>
      </g>
     </g>
     <g id="text_23">
      <!-- 50 -->
      <g transform="translate(1027.36312 518.598438)scale(0.1 -0.1)">
       <use xlink:href="#DejaVuSans-35"/>
       <use x="63.623047" xlink:href="#DejaVuSans-30"/>
      </g>
     </g>
    </g>
    <g id="text_24">
     <!-- $\# \, of \, epochs$ -->
     <g transform="translate(765.490909 542.918125)scale(0.24 -0.24)">
      <use transform="translate(0 0.015625)" xlink:href="#DejaVuSans-23"/>
      <use transform="translate(100.024739 0.015625)" xlink:href="#DejaVuSans-Oblique-6f"/>
      <use transform="translate(161.206379 0.015625)" xlink:href="#DejaVuSans-Oblique-66"/>
      <use transform="translate(212.647134 0.015625)" xlink:href="#DejaVuSans-Oblique-65"/>
      <use transform="translate(274.170571 0.015625)" xlink:href="#DejaVuSans-Oblique-70"/>
      <use transform="translate(337.647134 0.015625)" xlink:href="#DejaVuSans-Oblique-6f"/>
      <use transform="translate(398.828774 0.015625)" xlink:href="#DejaVuSans-Oblique-63"/>
      <use transform="translate(453.809243 0.015625)" xlink:href="#DejaVuSans-Oblique-68"/>
      <use transform="translate(517.188149 0.015625)" xlink:href="#DejaVuSans-Oblique-73"/>
     </g>
    </g>
   </g>
   <g id="matplotlib.axis_4">
    <g id="ytick_8">
     <g id="line2d_26">
      <g>
       <use style="stroke:#000000;stroke-width:0.8;" x="630.981818" xlink:href="#m16b81876f1" y="456.903113"/>
      </g>
     </g>
     <g id="text_25">
      <!-- 0.60 -->
      <g transform="translate(601.716193 460.702332)scale(0.1 -0.1)">
       <use xlink:href="#DejaVuSans-30"/>
       <use x="63.623047" xlink:href="#DejaVuSans-2e"/>
       <use x="95.410156" xlink:href="#DejaVuSans-36"/>
       <use x="159.033203" xlink:href="#DejaVuSans-30"/>
      </g>
     </g>
    </g>
    <g id="ytick_9">
     <g id="line2d_27">
      <g>
       <use style="stroke:#000000;stroke-width:0.8;" x="630.981818" xlink:href="#m16b81876f1" y="407.749131"/>
      </g>
     </g>
     <g id="text_26">
      <!-- 0.65 -->
      <g transform="translate(601.716193 411.54835)scale(0.1 -0.1)">
       <use xlink:href="#DejaVuSans-30"/>
       <use x="63.623047" xlink:href="#DejaVuSans-2e"/>
       <use x="95.410156" xlink:href="#DejaVuSans-36"/>
       <use x="159.033203" xlink:href="#DejaVuSans-35"/>
      </g>
     </g>
    </g>
    <g id="ytick_10">
     <g id="line2d_28">
      <g>
       <use style="stroke:#000000;stroke-width:0.8;" x="630.981818" xlink:href="#m16b81876f1" y="358.595149"/>
      </g>
     </g>
     <g id="text_27">
      <!-- 0.70 -->
      <g transform="translate(601.716193 362.394368)scale(0.1 -0.1)">
       <defs>
        <path d="M 525 4666 
L 3525 4666 
L 3525 4397 
L 1831 0 
L 1172 0 
L 2766 4134 
L 525 4134 
L 525 4666 
z
" id="DejaVuSans-37" transform="scale(0.015625)"/>
       </defs>
       <use xlink:href="#DejaVuSans-30"/>
       <use x="63.623047" xlink:href="#DejaVuSans-2e"/>
       <use x="95.410156" xlink:href="#DejaVuSans-37"/>
       <use x="159.033203" xlink:href="#DejaVuSans-30"/>
      </g>
     </g>
    </g>
    <g id="ytick_11">
     <g id="line2d_29">
      <g>
       <use style="stroke:#000000;stroke-width:0.8;" x="630.981818" xlink:href="#m16b81876f1" y="309.441167"/>
      </g>
     </g>
     <g id="text_28">
      <!-- 0.75 -->
      <g transform="translate(601.716193 313.240386)scale(0.1 -0.1)">
       <use xlink:href="#DejaVuSans-30"/>
       <use x="63.623047" xlink:href="#DejaVuSans-2e"/>
       <use x="95.410156" xlink:href="#DejaVuSans-37"/>
       <use x="159.033203" xlink:href="#DejaVuSans-35"/>
      </g>
     </g>
    </g>
    <g id="ytick_12">
     <g id="line2d_30">
      <g>
       <use style="stroke:#000000;stroke-width:0.8;" x="630.981818" xlink:href="#m16b81876f1" y="260.287185"/>
      </g>
     </g>
     <g id="text_29">
      <!-- 0.80 -->
      <g transform="translate(601.716193 264.086403)scale(0.1 -0.1)">
       <use xlink:href="#DejaVuSans-30"/>
       <use x="63.623047" xlink:href="#DejaVuSans-2e"/>
       <use x="95.410156" xlink:href="#DejaVuSans-38"/>
       <use x="159.033203" xlink:href="#DejaVuSans-30"/>
      </g>
     </g>
    </g>
    <g id="ytick_13">
     <g id="line2d_31">
      <g>
       <use style="stroke:#000000;stroke-width:0.8;" x="630.981818" xlink:href="#m16b81876f1" y="211.133202"/>
      </g>
     </g>
     <g id="text_30">
      <!-- 0.85 -->
      <g transform="translate(601.716193 214.932421)scale(0.1 -0.1)">
       <use xlink:href="#DejaVuSans-30"/>
       <use x="63.623047" xlink:href="#DejaVuSans-2e"/>
       <use x="95.410156" xlink:href="#DejaVuSans-38"/>
       <use x="159.033203" xlink:href="#DejaVuSans-35"/>
      </g>
     </g>
    </g>
    <g id="ytick_14">
     <g id="line2d_32">
      <g>
       <use style="stroke:#000000;stroke-width:0.8;" x="630.981818" xlink:href="#m16b81876f1" y="161.97922"/>
      </g>
     </g>
     <g id="text_31">
      <!-- 0.90 -->
      <g transform="translate(601.716193 165.778439)scale(0.1 -0.1)">
       <defs>
        <path d="M 703 97 
L 703 672 
Q 941 559 1184 500 
Q 1428 441 1663 441 
Q 2288 441 2617 861 
Q 2947 1281 2994 2138 
Q 2813 1869 2534 1725 
Q 2256 1581 1919 1581 
Q 1219 1581 811 2004 
Q 403 2428 403 3163 
Q 403 3881 828 4315 
Q 1253 4750 1959 4750 
Q 2769 4750 3195 4129 
Q 3622 3509 3622 2328 
Q 3622 1225 3098 567 
Q 2575 -91 1691 -91 
Q 1453 -91 1209 -44 
Q 966 3 703 97 
z
M 1959 2075 
Q 2384 2075 2632 2365 
Q 2881 2656 2881 3163 
Q 2881 3666 2632 3958 
Q 2384 4250 1959 4250 
Q 1534 4250 1286 3958 
Q 1038 3666 1038 3163 
Q 1038 2656 1286 2365 
Q 1534 2075 1959 2075 
z
" id="DejaVuSans-39" transform="scale(0.015625)"/>
       </defs>
       <use xlink:href="#DejaVuSans-30"/>
       <use x="63.623047" xlink:href="#DejaVuSans-2e"/>
       <use x="95.410156" xlink:href="#DejaVuSans-39"/>
       <use x="159.033203" xlink:href="#DejaVuSans-30"/>
      </g>
     </g>
    </g>
    <g id="ytick_15">
     <g id="line2d_33">
      <g>
       <use style="stroke:#000000;stroke-width:0.8;" x="630.981818" xlink:href="#m16b81876f1" y="112.825238"/>
      </g>
     </g>
     <g id="text_32">
      <!-- 0.95 -->
      <g transform="translate(601.716193 116.624457)scale(0.1 -0.1)">
       <use xlink:href="#DejaVuSans-30"/>
       <use x="63.623047" xlink:href="#DejaVuSans-2e"/>
       <use x="95.410156" xlink:href="#DejaVuSans-39"/>
       <use x="159.033203" xlink:href="#DejaVuSans-35"/>
      </g>
     </g>
    </g>
    <g id="text_33">
     <!-- $score \, ACC$ -->
     <g transform="translate(592.724943 346.08)rotate(-90)scale(0.24 -0.24)">
      <defs>
       <path d="M 2853 2969 
Q 2766 3016 2653 3041 
Q 2541 3066 2413 3066 
Q 1953 3066 1609 2717 
Q 1266 2369 1153 1784 
L 800 0 
L 225 0 
L 909 3500 
L 1484 3500 
L 1375 2956 
Q 1603 3259 1920 3421 
Q 2238 3584 2597 3584 
Q 2691 3584 2781 3573 
Q 2872 3563 2963 3538 
L 2853 2969 
z
" id="DejaVuSans-Oblique-72" transform="scale(0.015625)"/>
       <path d="M 2356 4666 
L 3072 4666 
L 3938 0 
L 3278 0 
L 3084 1197 
L 984 1197 
L 325 0 
L -341 0 
L 2356 4666 
z
M 2584 4044 
L 1275 1722 
L 2988 1722 
L 2584 4044 
z
" id="DejaVuSans-Oblique-41" transform="scale(0.015625)"/>
      </defs>
      <use transform="translate(0 0.78125)" xlink:href="#DejaVuSans-Oblique-73"/>
      <use transform="translate(52.099609 0.78125)" xlink:href="#DejaVuSans-Oblique-63"/>
      <use transform="translate(107.080078 0.78125)" xlink:href="#DejaVuSans-Oblique-6f"/>
      <use transform="translate(168.261719 0.78125)" xlink:href="#DejaVuSans-Oblique-72"/>
      <use transform="translate(209.375 0.78125)" xlink:href="#DejaVuSans-Oblique-65"/>
      <use transform="translate(287.134114 0.78125)" xlink:href="#DejaVuSans-Oblique-41"/>
      <use transform="translate(355.542317 0.78125)" xlink:href="#DejaVuSans-Oblique-43"/>
      <use transform="translate(425.366536 0.78125)" xlink:href="#DejaVuSans-Oblique-43"/>
     </g>
    </g>
   </g>
   <g id="line2d_34">
    <path clip-path="url(#p8d0a5101d2)" d="M 649.428099 286.699254 
L 657.11405 198.009115 
L 664.8 179.396118 
L 672.48595 167.287876 
L 680.171901 160.947015 
L 687.857851 155.195982 
L 695.543802 150.624665 
L 703.229752 145.119384 
L 710.915702 142.923846 
L 718.601653 140.072911 
L 726.287603 136.779634 
L 733.973554 133.109466 
L 741.659504 131.405433 
L 749.345455 129.160733 
L 757.031405 126.375367 
L 764.717355 125.687214 
L 772.403306 122.246391 
L 780.089256 120.247502 
L 787.775207 118.461551 
L 795.461157 116.315176 
L 803.147107 116.642845 
L 810.833058 114.430959 
L 818.519008 111.9241 
L 826.204959 111.858531 
L 833.890909 110.727978 
L 841.57686 107.532966 
L 849.26281 107.106972 
L 856.94876 105.468508 
L 864.634711 105.615994 
L 872.320661 104.223282 
L 880.006612 103.436805 
L 887.692562 101.224919 
L 895.378512 102.715897 
L 903.064463 99.914124 
L 910.750413 98.652491 
L 918.436364 97.194268 
L 926.122314 98.71806 
L 933.808264 95.70329 
L 941.494215 96.47336 
L 949.180165 94.539981 
L 956.866116 94.245008 
L 964.552066 92.819541 
L 972.238017 92.000308 
L 979.923967 91.115566 
L 987.609917 91.869229 
L 995.295868 89.640936 
L 1002.981818 90.181661 
L 1010.667769 89.640936 
L 1018.353719 88.887273 
" style="fill:none;stroke:#1f77b4;stroke-linecap:square;stroke-width:1.5;"/>
   </g>
   <g id="line2d_35">
    <path clip-path="url(#p8d0a5101d2)" d="M 649.428099 484.232727 
L 657.11405 191.275015 
L 664.8 168.074294 
L 672.48595 168.074294 
L 680.171901 157.653679 
L 687.857851 156.277373 
L 695.543802 153.131524 
L 703.229752 151.36198 
L 710.915702 155.687486 
L 718.601653 144.087155 
L 726.287603 144.283804 
L 733.973554 139.171761 
L 741.659504 137.598866 
L 749.345455 140.744716 
L 757.031405 136.22256 
L 764.717355 133.273301 
L 772.403306 134.453016 
L 780.089256 129.340974 
L 787.775207 132.683472 
L 795.461157 134.649606 
L 803.147107 127.964669 
L 810.833058 132.093585 
L 818.519008 134.256368 
L 826.204959 130.913928 
L 833.890909 137.598866 
L 841.57686 133.863129 
L 849.26281 127.964669 
L 856.94876 127.37484 
L 864.634711 130.913928 
L 872.320661 128.751146 
L 880.006612 131.700347 
L 887.692562 124.818819 
L 895.378512 127.964669 
L 903.064463 130.71728 
L 910.750413 127.76802 
L 918.436364 124.228991 
L 926.122314 125.998476 
L 933.808264 128.357907 
L 941.494215 129.930803 
L 949.180165 124.228991 
L 956.866116 127.178192 
L 964.552066 129.537564 
L 972.238017 127.37484 
L 979.923967 125.212058 
L 987.609917 123.639104 
L 995.295868 125.801886 
L 1002.981818 125.801886 
L 1010.667769 126.195125 
L 1018.353719 126.981602 
" style="fill:none;stroke:#ff7f0e;stroke-dasharray:5.55,2.4;stroke-dashoffset:0;stroke-width:1.5;"/>
   </g>
   <g id="patch_9">
    <path d="M 630.981818 504 
L 630.981818 69.12 
" style="fill:none;stroke:#000000;stroke-linecap:square;stroke-linejoin:miter;stroke-width:0.8;"/>
   </g>
   <g id="patch_10">
    <path d="M 1036.8 504 
L 1036.8 69.12 
" style="fill:none;stroke:#000000;stroke-linecap:square;stroke-linejoin:miter;stroke-width:0.8;"/>
   </g>
   <g id="patch_11">
    <path d="M 630.981818 504 
L 1036.8 504 
" style="fill:none;stroke:#000000;stroke-linecap:square;stroke-linejoin:miter;stroke-width:0.8;"/>
   </g>
   <g id="patch_12">
    <path d="M 630.981818 69.12 
L 1036.8 69.12 
" style="fill:none;stroke:#000000;stroke-linecap:square;stroke-linejoin:miter;stroke-width:0.8;"/>
   </g>
   <g id="legend_2">
    <g id="patch_13">
     <path d="M 825.0375 492 
L 1020 492 
Q 1024.8 492 1024.8 487.2 
L 1024.8 419.145 
Q 1024.8 414.345 1020 414.345 
L 825.0375 414.345 
Q 820.2375 414.345 820.2375 419.145 
L 820.2375 487.2 
Q 820.2375 492 825.0375 492 
z
" style="fill:#ffffff;opacity:0.8;stroke:#cccccc;stroke-linejoin:miter;"/>
    </g>
    <g id="line2d_36">
     <path d="M 829.8375 433.78125 
L 877.8375 433.78125 
" style="fill:none;stroke:#1f77b4;stroke-linecap:square;stroke-width:1.5;"/>
    </g>
    <g id="line2d_37"/>
    <g id="text_34">
     <!-- train -->
     <g transform="translate(897.0375 442.18125)scale(0.24 -0.24)">
      <use xlink:href="#DejaVuSans-74"/>
      <use x="39.208984" xlink:href="#DejaVuSans-72"/>
      <use x="80.322266" xlink:href="#DejaVuSans-61"/>
      <use x="141.601562" xlink:href="#DejaVuSans-69"/>
      <use x="169.384766" xlink:href="#DejaVuSans-6e"/>
     </g>
    </g>
    <g id="line2d_38">
     <path d="M 829.8375 469.00875 
L 877.8375 469.00875 
" style="fill:none;stroke:#ff7f0e;stroke-dasharray:5.55,2.4;stroke-dashoffset:0;stroke-width:1.5;"/>
    </g>
    <g id="line2d_39"/>
    <g id="text_35">
     <!-- validation -->
     <g transform="translate(897.0375 477.40875)scale(0.24 -0.24)">
      <use xlink:href="#DejaVuSans-76"/>
      <use x="59.179688" xlink:href="#DejaVuSans-61"/>
      <use x="120.458984" xlink:href="#DejaVuSans-6c"/>
      <use x="148.242188" xlink:href="#DejaVuSans-69"/>
      <use x="176.025391" xlink:href="#DejaVuSans-64"/>
      <use x="239.501953" xlink:href="#DejaVuSans-61"/>
      <use x="300.78125" xlink:href="#DejaVuSans-74"/>
      <use x="339.990234" xlink:href="#DejaVuSans-69"/>
      <use x="367.773438" xlink:href="#DejaVuSans-6f"/>
      <use x="428.955078" xlink:href="#DejaVuSans-6e"/>
     </g>
    </g>
   </g>
  </g>
 </g>
 <defs>
  <clipPath id="p263ac49630">
   <rect height="434.88" width="405.818182" x="144" y="69.12"/>
  </clipPath>
  <clipPath id="p8d0a5101d2">
   <rect height="434.88" width="405.818182" x="630.981818" y="69.12"/>
  </clipPath>
 </defs>
</svg>
